<svg width="43" height="43" viewBox="0 0 43 43" fill="none" xmlns="http://www.w3.org/2000/svg">
<path d="M37.625 34.0417V35.8333H5.375V34.0417L8.95833 30.4583V19.7083C8.95833 14.1542 12.5954 9.26293 17.9167 7.68626V7.16668C17.9167 6.21632 18.2942 5.30488 18.9662 4.63288C19.6382 3.96087 20.5496 3.58334 21.5 3.58334C22.4504 3.58334 23.3618 3.96087 24.0338 4.63288C24.7058 5.30488 25.0833 6.21632 25.0833 7.16668V7.68626C30.4046 9.26293 34.0417 14.1542 34.0417 19.7083V30.4583L37.625 34.0417ZM25.0833 37.625C25.0833 38.5754 24.7058 39.4868 24.0338 40.1588C23.3618 40.8308 22.4504 41.2083 21.5 41.2083C20.5496 41.2083 19.6382 40.8308 18.9662 40.1588C18.2942 39.4868 17.9167 38.5754 17.9167 37.625" fill="#CCCCCC"/>
</svg>
