<svg width="43" height="43" viewBox="0 0 43 43" fill="none" xmlns="http://www.w3.org/2000/svg">
<path d="M34.185 11.825C32.895 9.67497 30.53 8.59998 27.95 8.59998H15.05C12.47 8.59998 10.105 9.67497 8.815 11.825C3.87 19.35 2.795 30.745 6.235 33.11C9.675 35.475 17.415 25.155 21.5 25.155C25.585 25.155 33.11 35.475 36.765 33.11C40.205 30.745 39.13 19.35 34.185 11.825ZM17.2 19.35H15.05V21.5H12.9V19.35H10.75V17.2H12.9V15.05H15.05V17.2H17.2V19.35ZM28.81 20.425C28.81 21.5 27.95 22.36 26.875 22.36C25.8 22.36 24.94 21.5 24.94 20.425C24.94 19.35 25.8 18.49 26.875 18.49C27.95 18.49 28.81 19.35 28.81 20.425ZM32.895 16.125C32.895 17.2 32.035 18.06 30.96 18.06C29.885 18.06 29.025 17.2 29.025 16.125C29.025 15.05 29.885 14.19 30.96 14.19C32.035 14.19 32.895 15.05 32.895 16.125Z" fill="#CCCCCC"/>
</svg>
