<svg width="43" height="43" viewBox="0 0 43 43" fill="none" xmlns="http://www.w3.org/2000/svg">
<path d="M35.8333 21.5V10.3003C35.8334 10.1589 35.8057 10.0188 35.7515 9.88815C35.6974 9.75748 35.6181 9.63878 35.518 9.53884L29.8778 3.89868C29.6764 3.69702 29.4032 3.58359 29.1182 3.58334H8.24166C7.95655 3.58334 7.68312 3.6966 7.48152 3.8982C7.27992 4.09981 7.16666 4.37324 7.16666 4.65834V38.3417C7.16666 38.6268 7.27992 38.9002 7.48152 39.1018C7.68312 39.3034 7.95655 39.4167 8.24166 39.4167H19.7083M14.3333 17.9167H28.6667M14.3333 10.75H21.5M14.3333 25.0833H19.7083M32.1676 30.3508L33.9593 28.5592C34.1458 28.3725 34.3673 28.2244 34.6111 28.1233C34.8548 28.0223 35.1161 27.9703 35.38 27.9703C35.6439 27.9703 35.9053 28.0223 36.149 28.1233C36.3928 28.2244 36.6143 28.3725 36.8008 28.5592C37.1773 28.9358 37.3888 29.4465 37.3888 29.9791C37.3888 30.5116 37.1773 31.0223 36.8008 31.399L35.0092 33.1906L32.1676 30.349L26.8087 35.7079C26.5408 35.9767 26.3651 36.3236 26.307 36.6987L25.8699 39.4883L28.6595 39.053C29.0346 38.9949 29.3815 38.8192 29.6503 38.5513L35.0074 33.1906" stroke="#CCCCCC" stroke-width="1.5" stroke-linecap="round" stroke-linejoin="round"/>
<path d="M28.6667 3.58334V9.67501C28.6667 9.96012 28.7799 10.2335 28.9815 10.4351C29.1831 10.6367 29.4565 10.75 29.7417 10.75H35.8333" stroke="#CCCCCC" stroke-width="1.5" stroke-linecap="round" stroke-linejoin="round"/>
</svg>
