<svg width="43" height="43" viewBox="0 0 43 43" fill="none" xmlns="http://www.w3.org/2000/svg">
<g clip-path="url(#clip0_6_17423)">
<path fill-rule="evenodd" clip-rule="evenodd" d="M23.2917 23.2917C25.1924 23.2917 27.0153 24.0467 28.3593 25.3907C29.7033 26.7348 30.4584 28.5576 30.4584 30.4583V34.0417C30.4584 34.5169 30.2696 34.9726 29.9336 35.3086C29.5976 35.6446 29.1419 35.8333 28.6667 35.8333C28.1915 35.8333 27.7358 35.6446 27.3998 35.3086C27.0638 34.9726 26.875 34.5169 26.875 34.0417V30.4583C26.875 29.508 26.4975 28.5965 25.8255 27.9245C25.1535 27.2525 24.242 26.875 23.2917 26.875H10.75C9.79965 26.875 8.88822 27.2525 8.21621 27.9245C7.54421 28.5965 7.16668 29.508 7.16668 30.4583V34.0417C7.16668 34.5169 6.97791 34.9726 6.64191 35.3086C6.30591 35.6446 5.85019 35.8333 5.37501 35.8333C4.89983 35.8333 4.44411 35.6446 4.10811 35.3086C3.77211 34.9726 3.58334 34.5169 3.58334 34.0417V30.4583C3.58334 28.5576 4.3384 26.7348 5.68241 25.3907C7.02642 24.0467 8.84929 23.2917 10.75 23.2917H23.2917ZM34.0417 23.2917C35.4672 23.2917 36.8344 23.858 37.8424 24.866C38.8504 25.874 39.4167 27.2411 39.4167 28.6667V32.25C39.4167 32.7252 39.2279 33.1809 38.8919 33.5169C38.5559 33.8529 38.1002 34.0417 37.625 34.0417C37.1498 34.0417 36.6941 33.8529 36.3581 33.5169C36.0221 33.1809 35.8334 32.7252 35.8334 32.25V28.6667C35.8334 28.1915 35.6446 27.7358 35.3086 27.3998C34.9726 27.0638 34.5169 26.875 34.0417 26.875H31.5047C30.8836 25.4563 29.9066 24.222 28.6685 23.2917H34.0417ZM17.0208 5.375C19.1592 5.375 21.2099 6.22444 22.7219 7.73645C24.2339 9.24846 25.0834 11.2992 25.0834 13.4375C25.0834 15.5758 24.2339 17.6265 22.7219 19.1386C21.2099 20.6506 19.1592 21.5 17.0208 21.5C14.8825 21.5 12.8318 20.6506 11.3198 19.1386C9.80779 17.6265 8.95835 15.5758 8.95835 13.4375C8.95835 11.2992 9.80779 9.24846 11.3198 7.73645C12.8318 6.22444 14.8825 5.375 17.0208 5.375ZM32.25 10.75C33.6756 10.75 35.0427 11.3163 36.0507 12.3243C37.0587 13.3323 37.625 14.6995 37.625 16.125C37.625 17.5505 37.0587 18.9177 36.0507 19.9257C35.0427 20.9337 33.6756 21.5 32.25 21.5C30.8245 21.5 29.4573 20.9337 28.4493 19.9257C27.4413 18.9177 26.875 17.5505 26.875 16.125C26.875 14.6995 27.4413 13.3323 28.4493 12.3243C29.4573 11.3163 30.8245 10.75 32.25 10.75ZM17.0208 8.95833C15.8329 8.95833 14.6936 9.43025 13.8536 10.2703C13.0136 11.1103 12.5417 12.2496 12.5417 13.4375C12.5417 14.6255 13.0136 15.7647 13.8536 16.6048C14.6936 17.4448 15.8329 17.9167 17.0208 17.9167C18.2088 17.9167 19.3481 17.4448 20.1881 16.6048C21.0281 15.7647 21.5 14.6255 21.5 13.4375C21.5 12.2496 21.0281 11.1103 20.1881 10.2703C19.3481 9.43025 18.2088 8.95833 17.0208 8.95833ZM32.25 14.3333C31.7748 14.3333 31.3191 14.5221 30.9831 14.8581C30.6471 15.1941 30.4584 15.6498 30.4584 16.125C30.4584 16.6002 30.6471 17.0559 30.9831 17.3919C31.3191 17.7279 31.7748 17.9167 32.25 17.9167C32.7252 17.9167 33.1809 17.7279 33.5169 17.3919C33.8529 17.0559 34.0417 16.6002 34.0417 16.125C34.0417 15.6498 33.8529 15.1941 33.5169 14.8581C33.1809 14.5221 32.7252 14.3333 32.25 14.3333Z" fill="#CCCCCC"/>
</g>
<defs>
<clipPath id="clip0_6_17423">
<rect width="43" height="43" fill="white"/>
</clipPath>
</defs>
</svg>
