<svg width="43" height="43" viewBox="0 0 43 43" fill="none" xmlns="http://www.w3.org/2000/svg">
<path d="M36.2812 17.9167C36.2812 17.6226 36.2233 17.3313 36.1108 17.0596C35.9982 16.7879 35.8332 16.541 35.6253 16.333C35.4173 16.1251 35.1704 15.9601 34.8987 15.8476C34.627 15.735 34.3358 15.6771 34.0417 15.6771C33.7475 15.6771 33.4563 15.735 33.1846 15.8476C32.9129 15.9601 32.666 16.1251 32.458 16.333C32.2501 16.541 32.0851 16.7879 31.9725 17.0596C31.86 17.3313 31.8021 17.6226 31.8021 17.9167H36.2812ZM11.1979 17.9167C11.1979 17.3227 10.962 16.753 10.542 16.333C10.122 15.913 9.55231 15.6771 8.95834 15.6771C8.36437 15.6771 7.79472 15.913 7.37472 16.333C6.95471 16.753 6.71876 17.3227 6.71876 17.9167H11.1979ZM36.0412 23.0838C36.4612 23.5039 37.0309 23.7399 37.625 23.7399C38.219 23.7399 38.7888 23.5039 39.2088 23.0838C39.6289 22.6638 39.8649 22.094 39.8649 21.5C39.8649 20.9059 39.6289 20.3362 39.2088 19.9162L36.0412 23.0838ZM21.5 5.375L23.0838 3.79117C22.8759 3.58314 22.6289 3.41812 22.3572 3.30553C22.0854 3.19295 21.7942 3.135 21.5 3.135C21.2058 3.135 20.9146 3.19295 20.6428 3.30553C20.3711 3.41812 20.1241 3.58314 19.9162 3.79117L21.5 5.375ZM3.79118 19.9162C3.37112 20.3362 3.13513 20.9059 3.13513 21.5C3.13513 22.094 3.37112 22.6638 3.79118 23.0838C4.21123 23.5039 4.78096 23.7399 5.37501 23.7399C5.96906 23.7399 6.53878 23.5039 6.95884 23.0838L3.79118 19.9162ZM12.5417 39.8646H30.4583V35.3854H12.5417V39.8646ZM36.2812 34.0417V17.9167H31.8021V34.0417H36.2812ZM11.1979 34.0417V17.9167H6.71876V34.0417H11.1979ZM39.2088 19.9162L23.0838 3.79117L19.9162 6.95883L36.0412 23.0838L39.2088 19.9162ZM19.9162 3.79117L3.79118 19.9162L6.95884 23.0838L23.0838 6.95883L19.9162 3.79117ZM30.4583 39.8646C32.0027 39.8646 33.4837 39.2511 34.5757 38.1591C35.6678 37.0671 36.2812 35.586 36.2812 34.0417H31.8021C31.8021 34.398 31.6605 34.7398 31.4085 34.9918C31.1565 35.2438 30.8147 35.3854 30.4583 35.3854V39.8646ZM12.5417 35.3854C12.1853 35.3854 11.8435 35.2438 11.5915 34.9918C11.3395 34.7398 11.1979 34.398 11.1979 34.0417H6.71876C6.71876 35.586 7.33224 37.0671 8.42425 38.1591C9.51626 39.2511 10.9973 39.8646 12.5417 39.8646V35.3854Z" fill="#CCCCCC"/>
</svg>
