<svg width="43" height="43" viewBox="0 0 43 43" fill="none" xmlns="http://www.w3.org/2000/svg">
<path d="M38.7 10.4662C38.7001 10.7736 38.6243 11.0763 38.4793 11.3474C38.3342 11.6184 38.1245 11.8495 37.8687 12.0199L21.5 22.9333L5.13132 12.0199C4.79765 11.7979 4.54431 11.4744 4.40879 11.0972C4.27327 10.7201 4.26277 10.3093 4.37885 9.92569C4.49492 9.54209 4.73141 9.20605 5.0533 8.96729C5.3752 8.72853 5.76541 8.59975 6.16619 8.59999H36.8367C37.8687 8.59999 38.7029 9.43706 38.7029 10.4662H38.7ZM38.7 17.1054V31.5333C38.7 32.2936 38.398 33.0228 37.8604 33.5604C37.3228 34.098 36.5936 34.4 35.8333 34.4H7.16665C6.40637 34.4 5.67722 34.098 5.13961 33.5604C4.60201 33.0228 4.29999 32.2936 4.29999 31.5333V17.1054C4.29999 16.5321 4.93925 16.1909 5.41512 16.5091L21.5 27.2333L37.5849 16.512C37.6926 16.4399 37.8179 16.3984 37.9473 16.3919C38.0768 16.3854 38.2056 16.4141 38.32 16.475C38.4344 16.5359 38.5302 16.6267 38.5971 16.7377C38.664 16.8487 38.6996 16.9758 38.7 17.1054Z" fill="#CCCCCC"/>
</svg>
