<svg width="0" height="0" class="hidden">
  <symbol fill="none" xmlns="http://www.w3.org/2000/svg" viewBox="0 0 33 33" id="arrow">
    <path d="M9.625 13.75L16.5 20.625L23.375 13.75" stroke="white" stroke-width="2" stroke-linecap="round" stroke-linejoin="round"></path>
  </symbol>
  <symbol fill="none" xmlns="http://www.w3.org/2000/svg" viewBox="0 0 43 43" id="bell">
    <path d="M37.625 34.0417V35.8333H5.375V34.0417L8.95833 30.4583V19.7083C8.95833 14.1542 12.5954 9.26293 17.9167 7.68626V7.16668C17.9167 6.21632 18.2942 5.30488 18.9662 4.63288C19.6382 3.96087 20.5496 3.58334 21.5 3.58334C22.4504 3.58334 23.3618 3.96087 24.0338 4.63288C24.7058 5.30488 25.0833 6.21632 25.0833 7.16668V7.68626C30.4046 9.26293 34.0417 14.1542 34.0417 19.7083V30.4583L37.625 34.0417ZM25.0833 37.625C25.0833 38.5754 24.7058 39.4868 24.0338 40.1588C23.3618 40.8308 22.4504 41.2083 21.5 41.2083C20.5496 41.2083 19.6382 40.8308 18.9662 40.1588C18.2942 39.4868 17.9167 38.5754 17.9167 37.625" fill="white"></path>
  </symbol>
  <symbol fill="none" xmlns="http://www.w3.org/2000/svg" viewBox="0 0 43 43" id="controller">
    <path d="M34.185 11.825C32.895 9.67497 30.53 8.59998 27.95 8.59998H15.05C12.47 8.59998 10.105 9.67497 8.815 11.825C3.87 19.35 2.795 30.745 6.235 33.11C9.675 35.475 17.415 25.155 21.5 25.155C25.585 25.155 33.11 35.475 36.765 33.11C40.205 30.745 39.13 19.35 34.185 11.825ZM17.2 19.35H15.05V21.5H12.9V19.35H10.75V17.2H12.9V15.05H15.05V17.2H17.2V19.35ZM28.81 20.425C28.81 21.5 27.95 22.36 26.875 22.36C25.8 22.36 24.94 21.5 24.94 20.425C24.94 19.35 25.8 18.49 26.875 18.49C27.95 18.49 28.81 19.35 28.81 20.425ZM32.895 16.125C32.895 17.2 32.035 18.06 30.96 18.06C29.885 18.06 29.025 17.2 29.025 16.125C29.025 15.05 29.885 14.19 30.96 14.19C32.035 14.19 32.895 15.05 32.895 16.125Z" fill="white"></path>
  </symbol>
  <symbol fill="none" xmlns="http://www.w3.org/2000/svg" viewBox="0 0 43 43" id="edit">
    <path d="M35.8333 21.5V10.3003C35.8334 10.1589 35.8057 10.0188 35.7515 9.88815C35.6974 9.75748 35.6181 9.63878 35.518 9.53884L29.8778 3.89868C29.6764 3.69702 29.4032 3.58359 29.1182 3.58334H8.24166C7.95655 3.58334 7.68312 3.6966 7.48152 3.8982C7.27992 4.09981 7.16666 4.37324 7.16666 4.65834V38.3417C7.16666 38.6268 7.27992 38.9002 7.48152 39.1018C7.68312 39.3034 7.95655 39.4167 8.24166 39.4167H19.7083M14.3333 17.9167H28.6667M14.3333 10.75H21.5M14.3333 25.0833H19.7083M32.1676 30.3508L33.9593 28.5592C34.1458 28.3725 34.3673 28.2244 34.6111 28.1233C34.8548 28.0223 35.1161 27.9703 35.38 27.9703C35.6439 27.9703 35.9053 28.0223 36.149 28.1233C36.3928 28.2244 36.6143 28.3725 36.8008 28.5592C37.1773 28.9358 37.3888 29.4465 37.3888 29.9791C37.3888 30.5116 37.1773 31.0223 36.8008 31.399L35.0092 33.1906L32.1676 30.349L26.8087 35.7079C26.5408 35.9767 26.3651 36.3236 26.307 36.6987L25.8699 39.4883L28.6595 39.053C29.0346 38.9949 29.3815 38.8192 29.6503 38.5513L35.0074 33.1906" stroke="white" stroke-width="1.5" stroke-linecap="round" stroke-linejoin="round"></path>
    <path d="M28.6667 3.58334V9.67501C28.6667 9.96012 28.7799 10.2335 28.9815 10.4351C29.1831 10.6367 29.4565 10.75 29.7417 10.75H35.8333" stroke="white" stroke-width="1.5" stroke-linecap="round" stroke-linejoin="round"></path>
  </symbol>
  <symbol fill="none" xmlns="http://www.w3.org/2000/svg" viewBox="0 0 43 43" id="exit">
    <path d="M23.2917 7.18278C23.2917 6.7076 23.1029 6.25188 22.7669 5.91588C22.4309 5.57988 21.9752 5.39111 21.5 5.39111C21.0248 5.39111 20.5691 5.57988 20.2331 5.91588C19.8971 6.25188 19.7083 6.7076 19.7083 7.18278L19.7029 21.5215C19.7029 21.9967 19.8917 22.4524 20.2277 22.7884C20.5637 23.1244 21.0194 23.3132 21.4946 23.3132C21.9698 23.3132 22.4255 23.1244 22.7615 22.7884C23.0975 22.4524 23.2863 21.9967 23.2863 21.5215L23.2917 7.18457V7.18278Z" fill="white"></path>
    <path d="M7.16666 23.2773C7.16666 19.3177 8.7702 15.7344 11.3645 13.1418L13.8979 15.6753C12.3945 17.1786 11.3706 19.0941 10.9557 21.1794C10.5409 23.2647 10.7537 25.4262 11.5673 27.3906C12.3809 29.3549 13.7588 31.0339 15.5266 32.2152C17.2945 33.3964 19.3729 34.0269 21.4991 34.0269C23.6253 34.0269 25.7037 33.3964 27.4715 32.2152C29.2394 31.0339 30.6172 29.3549 31.4309 27.3906C32.2445 25.4262 32.4573 23.2647 32.0425 21.1794C31.6276 19.0941 30.6037 17.1786 29.1002 15.6753L31.6354 13.1418C33.3021 14.8086 34.532 16.8607 35.2162 19.1163C35.9004 21.3719 36.0177 23.7614 35.5579 26.0732C35.098 28.385 34.0751 30.5477 32.5798 32.3698C31.0844 34.1918 29.1628 35.617 26.9852 36.519C24.8075 37.421 22.441 37.7721 20.0953 37.5411C17.7495 37.3101 15.4969 36.5042 13.5371 35.1947C11.5772 33.8852 9.9705 32.1126 8.85931 30.0338C7.74813 27.9551 7.16674 25.6344 7.16666 23.2773Z" fill="white"></path>
  </symbol>
  <symbol fill="none" xmlns="http://www.w3.org/2000/svg" viewBox="0 0 43 43" id="friends">
    <g clip-path="url(#clip0_6_17423)">
      <path fill-rule="evenodd" clip-rule="evenodd" d="M23.2917 23.2917C25.1924 23.2917 27.0153 24.0467 28.3593 25.3907C29.7033 26.7348 30.4584 28.5576 30.4584 30.4583V34.0417C30.4584 34.5169 30.2696 34.9726 29.9336 35.3086C29.5976 35.6446 29.1419 35.8333 28.6667 35.8333C28.1915 35.8333 27.7358 35.6446 27.3998 35.3086C27.0638 34.9726 26.875 34.5169 26.875 34.0417V30.4583C26.875 29.508 26.4975 28.5965 25.8255 27.9245C25.1535 27.2525 24.242 26.875 23.2917 26.875H10.75C9.79965 26.875 8.88822 27.2525 8.21621 27.9245C7.54421 28.5965 7.16668 29.508 7.16668 30.4583V34.0417C7.16668 34.5169 6.97791 34.9726 6.64191 35.3086C6.30591 35.6446 5.85019 35.8333 5.37501 35.8333C4.89983 35.8333 4.44411 35.6446 4.10811 35.3086C3.77211 34.9726 3.58334 34.5169 3.58334 34.0417V30.4583C3.58334 28.5576 4.3384 26.7348 5.68241 25.3907C7.02642 24.0467 8.84929 23.2917 10.75 23.2917H23.2917ZM34.0417 23.2917C35.4672 23.2917 36.8344 23.858 37.8424 24.866C38.8504 25.874 39.4167 27.2411 39.4167 28.6667V32.25C39.4167 32.7252 39.2279 33.1809 38.8919 33.5169C38.5559 33.8529 38.1002 34.0417 37.625 34.0417C37.1498 34.0417 36.6941 33.8529 36.3581 33.5169C36.0221 33.1809 35.8334 32.7252 35.8334 32.25V28.6667C35.8334 28.1915 35.6446 27.7358 35.3086 27.3998C34.9726 27.0638 34.5169 26.875 34.0417 26.875H31.5047C30.8836 25.4563 29.9066 24.222 28.6685 23.2917H34.0417ZM17.0208 5.375C19.1592 5.375 21.2099 6.22444 22.7219 7.73645C24.2339 9.24846 25.0834 11.2992 25.0834 13.4375C25.0834 15.5758 24.2339 17.6265 22.7219 19.1386C21.2099 20.6506 19.1592 21.5 17.0208 21.5C14.8825 21.5 12.8318 20.6506 11.3198 19.1386C9.80779 17.6265 8.95835 15.5758 8.95835 13.4375C8.95835 11.2992 9.80779 9.24846 11.3198 7.73645C12.8318 6.22444 14.8825 5.375 17.0208 5.375ZM32.25 10.75C33.6756 10.75 35.0427 11.3163 36.0507 12.3243C37.0587 13.3323 37.625 14.6995 37.625 16.125C37.625 17.5505 37.0587 18.9177 36.0507 19.9257C35.0427 20.9337 33.6756 21.5 32.25 21.5C30.8245 21.5 29.4573 20.9337 28.4493 19.9257C27.4413 18.9177 26.875 17.5505 26.875 16.125C26.875 14.6995 27.4413 13.3323 28.4493 12.3243C29.4573 11.3163 30.8245 10.75 32.25 10.75ZM17.0208 8.95833C15.8329 8.95833 14.6936 9.43025 13.8536 10.2703C13.0136 11.1103 12.5417 12.2496 12.5417 13.4375C12.5417 14.6255 13.0136 15.7647 13.8536 16.6048C14.6936 17.4448 15.8329 17.9167 17.0208 17.9167C18.2088 17.9167 19.3481 17.4448 20.1881 16.6048C21.0281 15.7647 21.5 14.6255 21.5 13.4375C21.5 12.2496 21.0281 11.1103 20.1881 10.2703C19.3481 9.43025 18.2088 8.95833 17.0208 8.95833ZM32.25 14.3333C31.7748 14.3333 31.3191 14.5221 30.9831 14.8581C30.6471 15.1941 30.4584 15.6498 30.4584 16.125C30.4584 16.6002 30.6471 17.0559 30.9831 17.3919C31.3191 17.7279 31.7748 17.9167 32.25 17.9167C32.7252 17.9167 33.1809 17.7279 33.5169 17.3919C33.8529 17.0559 34.0417 16.6002 34.0417 16.125C34.0417 15.6498 33.8529 15.1941 33.5169 14.8581C33.1809 14.5221 32.7252 14.3333 32.25 14.3333Z" fill="white"></path>
    </g>
    <defs>
      <clipPath id="clip0_6_17423">
        <rect width="43" height="43" fill="white"></rect>
      </clipPath>
    </defs>
  </symbol>
  <symbol fill="none" xmlns="http://www.w3.org/2000/svg" viewBox="0 0 43 43" id="home">
    <path d="M36.2812 17.9167C36.2812 17.6226 36.2233 17.3313 36.1108 17.0596C35.9982 16.7879 35.8332 16.541 35.6253 16.333C35.4173 16.1251 35.1704 15.9601 34.8987 15.8476C34.627 15.735 34.3358 15.6771 34.0417 15.6771C33.7475 15.6771 33.4563 15.735 33.1846 15.8476C32.9129 15.9601 32.666 16.1251 32.458 16.333C32.2501 16.541 32.0851 16.7879 31.9725 17.0596C31.86 17.3313 31.8021 17.6226 31.8021 17.9167H36.2812ZM11.1979 17.9167C11.1979 17.3227 10.962 16.753 10.542 16.333C10.122 15.913 9.55231 15.6771 8.95834 15.6771C8.36437 15.6771 7.79472 15.913 7.37472 16.333C6.95471 16.753 6.71876 17.3227 6.71876 17.9167H11.1979ZM36.0412 23.0838C36.4612 23.5039 37.0309 23.7399 37.625 23.7399C38.219 23.7399 38.7888 23.5039 39.2088 23.0838C39.6289 22.6638 39.8649 22.094 39.8649 21.5C39.8649 20.9059 39.6289 20.3362 39.2088 19.9162L36.0412 23.0838ZM21.5 5.375L23.0838 3.79117C22.8759 3.58314 22.6289 3.41812 22.3572 3.30553C22.0854 3.19295 21.7942 3.135 21.5 3.135C21.2058 3.135 20.9146 3.19295 20.6428 3.30553C20.3711 3.41812 20.1241 3.58314 19.9162 3.79117L21.5 5.375ZM3.79118 19.9162C3.37112 20.3362 3.13513 20.9059 3.13513 21.5C3.13513 22.094 3.37112 22.6638 3.79118 23.0838C4.21123 23.5039 4.78096 23.7399 5.37501 23.7399C5.96906 23.7399 6.53878 23.5039 6.95884 23.0838L3.79118 19.9162ZM12.5417 39.8646H30.4583V35.3854H12.5417V39.8646ZM36.2812 34.0417V17.9167H31.8021V34.0417H36.2812ZM11.1979 34.0417V17.9167H6.71876V34.0417H11.1979ZM39.2088 19.9162L23.0838 3.79117L19.9162 6.95883L36.0412 23.0838L39.2088 19.9162ZM19.9162 3.79117L3.79118 19.9162L6.95884 23.0838L23.0838 6.95883L19.9162 3.79117ZM30.4583 39.8646C32.0027 39.8646 33.4837 39.2511 34.5757 38.1591C35.6678 37.0671 36.2812 35.586 36.2812 34.0417H31.8021C31.8021 34.398 31.6605 34.7398 31.4085 34.9918C31.1565 35.2438 30.8147 35.3854 30.4583 35.3854V39.8646ZM12.5417 35.3854C12.1853 35.3854 11.8435 35.2438 11.5915 34.9918C11.3395 34.7398 11.1979 34.398 11.1979 34.0417H6.71876C6.71876 35.586 7.33224 37.0671 8.42425 38.1591C9.51626 39.2511 10.9973 39.8646 12.5417 39.8646V35.3854Z" fill="white"></path>
  </symbol>
  <symbol fill="none" xmlns="http://www.w3.org/2000/svg" viewBox="0 0 43 43" id="mail">
    <path d="M38.7 10.4662C38.7001 10.7736 38.6243 11.0763 38.4793 11.3474C38.3342 11.6184 38.1245 11.8495 37.8687 12.0199L21.5 22.9333L5.13132 12.0199C4.79765 11.7979 4.54431 11.4744 4.40879 11.0972C4.27327 10.7201 4.26277 10.3093 4.37885 9.92569C4.49492 9.54209 4.73141 9.20605 5.0533 8.96729C5.3752 8.72853 5.76541 8.59975 6.16619 8.59999H36.8367C37.8687 8.59999 38.7029 9.43706 38.7029 10.4662H38.7ZM38.7 17.1054V31.5333C38.7 32.2936 38.398 33.0228 37.8604 33.5604C37.3228 34.098 36.5936 34.4 35.8333 34.4H7.16665C6.40637 34.4 5.67722 34.098 5.13961 33.5604C4.60201 33.0228 4.29999 32.2936 4.29999 31.5333V17.1054C4.29999 16.5321 4.93925 16.1909 5.41512 16.5091L21.5 27.2333L37.5849 16.512C37.6926 16.4399 37.8179 16.3984 37.9473 16.3919C38.0768 16.3854 38.2056 16.4141 38.32 16.475C38.4344 16.5359 38.5302 16.6267 38.5971 16.7377C38.664 16.8487 38.6996 16.9758 38.7 17.1054Z" fill="white"></path>
  </symbol>
  <symbol fill="none" xmlns="http://www.w3.org/2000/svg" viewBox="0 0 43 43" id="people">
    <g clip-path="url(#clip0_6_17421)">
      <path d="M13.2807 21.5C10.862 21.58 8.88368 22.6038 7.34583 24.5714H4.34479C3.12049 24.5714 2.09028 24.2475 1.25417 23.5996C0.418056 22.9517 0 22.0039 0 20.7561C0 15.1092 0.925694 12.2857 2.77708 12.2857C2.86667 12.2857 3.19141 12.4537 3.7513 12.7896C4.3112 13.1256 5.03906 13.4655 5.9349 13.8094C6.83073 14.1534 7.7191 14.3253 8.6 14.3253C9.60035 14.3253 10.5932 14.1414 11.5786 13.7734C11.504 14.3653 11.4667 14.8932 11.4667 15.3571C11.4667 17.5807 12.0714 19.6283 13.2807 21.5ZM37.2667 36.7852C37.2667 38.7048 36.7217 40.2205 35.6318 41.3323C34.5418 42.4441 33.0936 43 31.287 43H11.713C9.90642 43 8.45816 42.4441 7.36823 41.3323C6.2783 40.2205 5.73333 38.7048 5.73333 36.7852C5.73333 35.9373 5.75946 35.1095 5.81172 34.3016C5.86398 33.4938 5.96849 32.6219 6.12526 31.6861C6.28203 30.7503 6.47986 29.8824 6.71875 29.0826C6.95764 28.2827 7.27865 27.5029 7.68177 26.743C8.0849 25.9832 8.54774 25.3353 9.07031 24.7994C9.59288 24.2635 10.2312 23.8356 10.9852 23.5156C11.7391 23.1957 12.5715 23.0357 13.4823 23.0357C13.6316 23.0357 13.9526 23.2077 14.4453 23.5516C14.938 23.8956 15.483 24.2795 16.0802 24.7034C16.6774 25.1273 17.4762 25.5113 18.4766 25.8552C19.4769 26.1991 20.4847 26.3711 21.5 26.3711C22.5153 26.3711 23.5231 26.1991 24.5234 25.8552C25.5238 25.5113 26.3226 25.1273 26.9198 24.7034C27.517 24.2795 28.062 23.8956 28.5547 23.5516C29.0474 23.2077 29.3684 23.0357 29.5177 23.0357C30.4285 23.0357 31.2608 23.1957 32.0148 23.5156C32.7688 23.8356 33.4071 24.2635 33.9297 24.7994C34.4523 25.3353 34.9151 25.9832 35.3182 26.743C35.7214 27.5029 36.0424 28.2827 36.2812 29.0826C36.5201 29.8824 36.718 30.7503 36.8747 31.6861C37.0315 32.6219 37.136 33.4938 37.1883 34.3016C37.2405 35.1095 37.2667 35.9373 37.2667 36.7852ZM14.3333 6.14286C14.3333 7.83854 13.7734 9.28627 12.6536 10.486C11.5339 11.6858 10.1826 12.2857 8.6 12.2857C7.01736 12.2857 5.66615 11.6858 4.54635 10.486C3.42656 9.28627 2.86667 7.83854 2.86667 6.14286C2.86667 4.44717 3.42656 2.99944 4.54635 1.79967C5.66615 0.599888 7.01736 0 8.6 0C10.1826 0 11.5339 0.599888 12.6536 1.79967C13.7734 2.99944 14.3333 4.44717 14.3333 6.14286ZM30.1 15.3571C30.1 17.9007 29.2602 20.0723 27.5805 21.8719C25.9008 23.6716 23.874 24.5714 21.5 24.5714C19.126 24.5714 17.0992 23.6716 15.4195 21.8719C13.7398 20.0723 12.9 17.9007 12.9 15.3571C12.9 12.8136 13.7398 10.642 15.4195 8.84235C17.0992 7.04269 19.126 6.14286 21.5 6.14286C23.874 6.14286 25.9008 7.04269 27.5805 8.84235C29.2602 10.642 30.1 12.8136 30.1 15.3571ZM43 20.7561C43 22.0039 42.5819 22.9517 41.7458 23.5996C40.9097 24.2475 39.8795 24.5714 38.6552 24.5714H35.6542C34.1163 22.6038 32.138 21.58 29.7193 21.5C30.9286 19.6283 31.5333 17.5807 31.5333 15.3571C31.5333 14.8932 31.496 14.3653 31.4214 13.7734C32.4068 14.1414 33.3997 14.3253 34.4 14.3253C35.2809 14.3253 36.1693 14.1534 37.0651 13.8094C37.9609 13.4655 38.6888 13.1256 39.2487 12.7896C39.8086 12.4537 40.1333 12.2857 40.2229 12.2857C42.0743 12.2857 43 15.1092 43 20.7561ZM40.1333 6.14286C40.1333 7.83854 39.5734 9.28627 38.4536 10.486C37.3339 11.6858 35.9826 12.2857 34.4 12.2857C32.8174 12.2857 31.4661 11.6858 30.3464 10.486C29.2266 9.28627 28.6667 7.83854 28.6667 6.14286C28.6667 4.44717 29.2266 2.99944 30.3464 1.79967C31.4661 0.599888 32.8174 0 34.4 0C35.9826 0 37.3339 0.599888 38.4536 1.79967C39.5734 2.99944 40.1333 4.44717 40.1333 6.14286Z" fill="white"></path>
    </g>
    <defs>
      <clipPath id="clip0_6_17421">
        <rect width="43" height="43" fill="white"></rect>
      </clipPath>
    </defs>
  </symbol>
  <symbol fill="none" xmlns="http://www.w3.org/2000/svg" viewBox="0 0 43 43" id="post">
    <path d="M32.25 21.5C31.2646 21.5 30.4583 22.3062 30.4583 23.2917V32.6442C30.4583 33.6296 29.6521 34.4358 28.6667 34.4358H10.75C9.76458 34.4358 8.95833 33.6296 8.95833 32.6442V14.3333C8.95833 13.3479 9.76458 12.5417 10.75 12.5417H19.7083C20.6937 12.5417 21.5 11.7354 21.5 10.75C21.5 9.76458 20.6937 8.95833 19.7083 8.95833H8.95833C6.9875 8.95833 5.375 10.5708 5.375 12.5417V34.0417C5.375 36.0125 6.9875 37.625 8.95833 37.625H30.4583C32.4292 37.625 34.0417 36.0125 34.0417 34.0417V23.2917C34.0417 22.3062 33.2354 21.5 32.25 21.5ZM37.6608 8.95833H34.0417V5.33917C34.0417 4.37167 33.2533 3.58333 32.2858 3.58333H32.2321C31.2467 3.58333 30.4583 4.37167 30.4583 5.33917V8.95833H26.8571C25.8896 8.95833 25.1012 9.74666 25.0833 10.7142V10.7679C25.0833 11.7533 25.8717 12.5417 26.8571 12.5417H30.4583V16.1429C30.4583 17.1104 31.2467 17.9167 32.2321 17.8987H32.2858C33.2533 17.8987 34.0417 17.1104 34.0417 16.1429V12.5417H37.6608C38.6283 12.5417 39.4167 11.7533 39.4167 10.7858V10.7142C39.4167 9.74666 38.6283 8.95833 37.6608 8.95833Z" fill="white"></path>
    <path d="M25.0833 16.125H14.3334C13.3479 16.125 12.5417 16.9312 12.5417 17.9167C12.5417 18.9021 13.3479 19.7083 14.3334 19.7083H25.0833C26.0688 19.7083 26.875 18.9021 26.875 17.9167C26.875 16.9312 26.0688 16.125 25.0833 16.125ZM25.0833 21.5H14.3334C13.3479 21.5 12.5417 22.3062 12.5417 23.2917C12.5417 24.2771 13.3479 25.0833 14.3334 25.0833H25.0833C26.0688 25.0833 26.875 24.2771 26.875 23.2917C26.875 22.3062 26.0688 21.5 25.0833 21.5ZM25.0833 26.875H14.3334C13.3479 26.875 12.5417 27.6812 12.5417 28.6667C12.5417 29.6521 13.3479 30.4583 14.3334 30.4583H25.0833C26.0688 30.4583 26.875 29.6521 26.875 28.6667C26.875 27.6812 26.0688 26.875 25.0833 26.875Z" fill="white"></path>
  </symbol>
  <symbol fill="none" xmlns="http://www.w3.org/2000/svg" viewBox="0 0 43 43" id="settings">
    <g clip-path="url(#clip0_6_17433)">
      <path d="M23.8181 3.92406e-06C24.4502 3.92406e-06 25.0157 0.393454 25.2285 0.982553L26.7464 5.1901C27.2904 5.32555 27.7569 5.461 28.1525 5.6029C28.5847 5.7577 29.1415 5.99205 29.8295 6.3124L33.3641 4.4419C33.6526 4.28905 33.9829 4.23388 34.3055 4.28466C34.628 4.33544 34.9253 4.48944 35.1529 4.72355L38.2618 7.9378C38.6746 8.36565 38.7907 8.9913 38.5585 9.5374L36.9009 13.4224C37.1761 13.9277 37.3954 14.3598 37.5631 14.721C37.7437 15.1145 37.9673 15.6563 38.2339 16.355L42.0974 18.0105C42.6779 18.2578 43.037 18.8383 42.9983 19.4596L42.7145 23.9209C42.6951 24.2107 42.591 24.4885 42.4152 24.7197C42.2394 24.9509 41.9996 25.1255 41.7255 25.2216L38.0662 26.5224C37.9608 27.0276 37.8512 27.4598 37.7351 27.8253C37.5478 28.3898 37.334 28.9451 37.0944 29.4894L38.9326 33.5529C39.0624 33.8384 39.0973 34.1579 39.0323 34.4647C38.9673 34.7715 38.8058 35.0495 38.5714 35.2578L35.0755 38.3796C34.8453 38.5844 34.558 38.7138 34.2521 38.7507C33.9463 38.7876 33.6364 38.7302 33.3641 38.586L29.7607 36.6768C29.197 36.9753 28.6154 37.2389 28.0192 37.4659L26.4454 38.055L25.0479 41.925C24.9444 42.2084 24.7576 42.4539 24.512 42.6292C24.2664 42.8046 23.9736 42.9016 23.6719 42.9075L19.5869 43C19.2772 43.0081 18.9727 42.9201 18.7151 42.748C18.4575 42.5759 18.2596 42.3282 18.1486 42.0389L16.5017 37.6809C15.9398 37.4888 15.3834 37.2809 14.8333 37.0574C14.3833 36.8626 13.9402 36.6525 13.5046 36.4274L9.41957 38.1732C9.15041 38.2881 8.85367 38.3222 8.56547 38.2714C8.27727 38.2206 8.01005 38.0872 7.79632 37.8873L4.77342 35.0514C4.54836 34.8412 4.39509 34.5656 4.33529 34.2635C4.27549 33.9614 4.31218 33.6481 4.44017 33.368L6.19672 29.541C5.96311 29.0877 5.74653 28.6259 5.54742 28.1564C5.31501 27.5818 5.09991 27.0003 4.90242 26.4127L1.05392 25.241C0.7411 25.1464 0.468252 24.9512 0.277752 24.6857C0.0872519 24.4202 -0.0102375 24.0992 0.000423848 23.7725L0.150924 19.6424C0.161636 19.3729 0.245818 19.1115 0.394364 18.8864C0.54291 18.6613 0.750168 18.4811 0.993724 18.3653L5.03142 16.426C5.21847 15.7401 5.38187 15.2069 5.52592 14.8178C5.72876 14.298 5.954 13.7873 6.20102 13.287L4.45092 9.589C4.31811 9.30817 4.27778 8.99246 4.33573 8.68726C4.39367 8.38206 4.54692 8.1031 4.77342 7.8905L7.79202 5.0396C8.00363 4.84002 8.2684 4.70584 8.55447 4.6532C8.84055 4.60057 9.13574 4.63172 9.40452 4.7429L13.4852 6.4285C13.9367 6.1275 14.3452 5.88455 14.715 5.6889C15.1558 5.45455 15.7449 5.20945 16.4866 4.945L17.9056 0.986853C18.0105 0.697181 18.2023 0.446949 18.4547 0.270326C18.7071 0.0937027 19.0079 -0.000701439 19.316 3.92406e-06H23.8181ZM22.7646 2.96055H20.3717L19.0709 6.60265C18.9944 6.81502 18.8707 7.00724 18.7091 7.16478C18.5474 7.32233 18.3521 7.44109 18.1378 7.5121C17.2004 7.82385 16.5232 8.0926 16.1276 8.30115C15.7083 8.5226 15.173 8.86015 14.5366 9.31165C14.3283 9.45783 14.0865 9.54905 13.8335 9.57687C13.5806 9.60468 13.3247 9.56818 13.0896 9.47075L9.15512 7.8475L7.62217 9.2966L9.21962 12.6721C9.31526 12.8729 9.36381 13.0929 9.36157 13.3154C9.35934 13.5378 9.30638 13.7568 9.20672 13.9556C8.77672 14.8178 8.48647 15.4542 8.34027 15.8455C8.11608 16.4969 7.92237 17.1584 7.75977 17.8278C7.70576 18.0373 7.60656 18.2325 7.46914 18.3996C7.33172 18.5668 7.1594 18.7018 6.96427 18.7953L3.11577 20.6421L3.03837 22.7491L6.52137 23.8069C6.98362 23.9467 7.34912 24.3014 7.50177 24.7572C7.84577 25.7892 8.12097 26.5503 8.31877 27.0276C8.58086 27.6333 8.8707 28.2267 9.18737 28.8057C9.29451 29.0049 9.35396 29.2263 9.36104 29.4523C9.36813 29.6784 9.32267 29.9031 9.22822 30.1086L7.61357 33.6303L9.14222 35.0665L12.9735 33.4282C13.1799 33.34 13.4033 33.2989 13.6276 33.3078C13.8518 33.3167 14.0713 33.3755 14.27 33.4798C15.0547 33.8926 15.6395 34.1785 16.0093 34.3355C16.3856 34.4924 17.1058 34.7547 18.1507 35.1116C18.3582 35.1825 18.5474 35.2982 18.705 35.4506C18.8626 35.6029 18.9846 35.7882 19.0623 35.9931L20.5845 40.0158L22.5754 39.9728L23.859 36.4167C23.9324 36.2138 24.0491 36.0292 24.2009 35.8759C24.3527 35.7226 24.5361 35.6041 24.7383 35.5287L26.9679 34.6945C27.5312 34.486 28.2149 34.157 29.0125 33.7055C29.2333 33.5815 29.4817 33.5149 29.7349 33.5119C29.9881 33.5089 30.238 33.5696 30.4616 33.6883L33.8522 35.4836L35.7592 33.7829L34.0908 30.1C34.0051 29.9109 33.9606 29.7058 33.9603 29.4982C33.9599 29.2906 34.0037 29.0854 34.0887 28.896C34.48 28.0209 34.7444 27.3609 34.8777 26.9395C35.0089 26.5267 35.1443 25.9311 35.2755 25.1657C35.3206 24.9058 35.4342 24.6625 35.6047 24.4611C35.7751 24.2596 35.9962 24.1073 36.2451 24.0198L39.7883 22.762L39.9431 20.311L36.4601 18.8189C36.2747 18.74 36.1072 18.6242 35.9679 18.4786C35.8286 18.333 35.7203 18.1606 35.6496 17.9718C35.4012 17.2865 35.1301 16.6096 34.8369 15.9422C34.5592 15.3612 34.258 14.7917 33.9339 14.2351C33.8216 14.0385 33.7564 13.8186 33.7433 13.5925C33.7302 13.3665 33.7697 13.1405 33.8586 12.9322L35.4174 9.27725L33.7748 7.57875L30.5756 9.27295C30.3667 9.38372 30.1348 9.44395 29.8984 9.44881C29.6621 9.45366 29.4279 9.403 29.2146 9.3009C28.5356 8.96327 27.8411 8.65764 27.1334 8.385C26.53 8.18236 25.9147 8.01722 25.2909 7.8905C25.0434 7.83802 24.8133 7.72347 24.6222 7.55761C24.4311 7.39175 24.2854 7.18003 24.1987 6.94235L22.7625 2.9584L22.7646 2.96055ZM21.552 12.1281C26.7873 12.1281 31.0335 16.3271 31.0335 21.5043C31.0335 26.6815 26.7873 30.8783 21.552 30.8783C16.3146 30.8783 12.0705 26.6815 12.0705 21.5043C12.0705 16.3271 16.3146 12.1303 21.552 12.1303V12.1281ZM21.552 15.0908C17.968 15.0908 15.0633 17.9611 15.0633 21.5043C15.0633 25.0475 17.968 27.9199 21.552 27.9199C25.1339 27.9199 28.0386 25.0475 28.0386 21.5043C28.0386 17.9611 25.1361 15.0908 21.552 15.0908Z" fill="white"></path>
    </g>
    <defs>
      <clipPath id="clip0_6_17433">
        <rect width="43" height="43" fill="white"></rect>
      </clipPath>
    </defs>
  </symbol>
</svg>